<?xml version="1.0" encoding="UTF-8"?>
<svg width="152px" height="26px" viewBox="0 0 152 26" version="1.1" xmlns="http://www.w3.org/2000/svg" xmlns:xlink="http://www.w3.org/1999/xlink">
    <!-- Generator: sketchtool 52.2 (67145) - http://www.bohemiancoding.com/sketch -->
    <title>79188DEA-8376-45CC-8114-6949B4D00567</title>
    <desc>Created with sketchtool.</desc>
    <g id="TV" stroke="none" stroke-width="1" fill="none" fill-rule="evenodd">
        <g id="TV_DOCTOR" transform="translate(-25.000000, -24.000000)">
            <g id="Header">
                <g id="Bg">
                    <g id="Logo" transform="translate(24.000000, 23.000000)">
                        <path d="M124.691,8.965 L119.325,9.93 C118.435361,10.0897527 117.843555,10.9403054 118.003,11.83 C118.162753,12.7196394 119.013305,13.311445 119.903,13.152 L125.269,12.187 C126.282963,11.9655408 127.303074,12.5341276 127.648,13.513 C128.064156,14.4627027 127.708404,15.5736789 126.818,16.105 L118.942,21.205 C118.225697,21.6771042 117.306529,21.7125457 116.556,21.297 C115.798402,20.894122 115.32806,20.1030225 115.336,19.245 L115.336,6.686 C115.352868,4.62544978 114.223476,2.72617417 112.405,1.757 C110.603036,0.757671981 108.395035,0.842446872 106.675,1.977 L86.866,14.81 C84.6595565,16.1841223 83.7728227,18.9539486 84.771,21.354 C85.6833428,23.7866313 88.2221892,25.201615 90.771,24.698 L108.071,21.588 C108.960639,21.4282473 109.552445,20.5776946 109.393,19.688 C109.233247,18.7983606 108.382695,18.206555 107.493,18.366 L90.193,21.476 C89.1795769,21.6974796 88.1599022,21.1293261 87.815,20.151 C87.399077,19.200512 87.7557053,18.0890491 88.647,17.558 L108.455,4.724 C109.171231,4.25167315 110.090525,4.21622677 110.841,4.632 C111.597947,5.0360626 112.067956,5.82698642 112.061,6.685 L112.061,19.248 C112.044358,21.3084891 113.173686,23.2076564 114.992,24.177 C115.815301,24.6289643 116.738805,24.8672325 117.678,24.87 C118.759772,24.866564 119.817264,24.5490384 120.722,23.956 L128.598,18.856 C130.810106,17.4854376 131.699954,14.7116538 130.698,12.31 C129.785322,9.87765709 127.246742,8.46282167 124.698,8.966 M152.398,12.31 C151.486328,9.8767915 148.946949,8.4615108 146.398,8.966 L141.032,9.931 C140.142361,10.0907527 139.550555,10.9413054 139.71,11.831 C139.869753,12.7206394 140.720305,13.312445 141.61,13.153 L146.976,12.188 C147.989423,11.9665204 149.009098,12.5346739 149.354,13.513 C149.770333,14.4624563 149.415032,15.5733588 148.525,16.105 L140.648,21.205 C139.931697,21.6771042 139.012529,21.7125457 138.262,21.297 C137.503815,20.8957029 137.031964,20.1058154 137.038,19.248 L137.038,2.709 C137.037735,2.27440194 136.864769,1.85772385 136.55718,1.55069802 C136.249592,1.24367219 135.832598,1.07146927 135.398,1.072 C134.49391,1.072 133.761,1.80490986 133.761,2.709 L133.761,19.248 C133.745758,21.3097263 134.877525,23.209106 136.698,24.177 C137.521629,24.6290464 138.445477,24.8673145 139.385,24.87 C140.466772,24.866564 141.524264,24.5490384 142.429,23.956 L150.306,18.856 C152.513188,17.4809591 153.398885,14.7091346 152.398,12.309" id="path48" fill="#009B3A" fill-rule="nonzero"></path>
                        <path d="M48.715,7.992 C48.4430172,8.00048237 48.1989788,8.16136981 48.084,8.408 C47.8146657,8.98818219 47.2231699,9.3497833 46.584,9.325 C46.1547238,9.35766933 45.7306896,9.21386453 45.4098452,8.9268032 C45.0890008,8.63974187 44.8990971,8.2342527 44.884,7.804 C44.8400168,7.29327854 44.8400168,6.77972146 44.884,6.269 C44.8994192,5.83861361 45.0893069,5.43303034 45.409978,5.14555816 C45.7306491,4.85808597 46.1544927,4.71347708 46.584,4.745 C47.225231,4.71879002 47.8183875,5.08377898 48.084,5.668 C48.2013888,5.91166916 48.4446549,6.06973426 48.715,6.078 C48.8993889,6.09587523 49.0824599,6.03284941 49.2167685,5.90525629 C49.351077,5.77766316 49.4234021,5.59806269 49.415,5.413 C49.4021827,5.18058829 49.3306174,4.95522633 49.207,4.758 C48.6576914,3.83473538 47.6394543,3.29476117 46.567,3.358 C44.9642263,3.25507117 43.5792038,4.46584894 43.467,6.068 C43.4159994,6.71399495 43.4159994,7.36300505 43.467,8.009 C43.5808086,9.61077397 44.9642755,10.8215306 46.567,10.722 C47.6417121,10.78494 48.6615864,10.2423962 49.21,9.316 C49.330923,9.11806529 49.3997302,8.89272195 49.41,8.661 C49.418442,8.47600984 49.3460909,8.29647905 49.2117378,8.1690355 C49.0773846,8.04159195 48.8942873,7.97881167 48.71,7.997 L48.715,7.992 Z M21.61,10.597 L24.475,10.597 C25.2889513,10.6755911 26.0950105,10.3834032 26.6695406,9.80150238 C27.2440706,9.2196016 27.52596,8.40988339 27.437,7.597 C27.4987633,6.80617439 27.2011147,6.02958075 26.6266118,5.48261983 C26.0521089,4.93565891 25.2618404,4.67649082 24.475,4.777 L21.975,4.777 L21.975,2.453 L26.186,2.453 C26.3827548,2.47445774 26.5791739,2.40976384 26.724666,2.27558141 C26.8701581,2.14139897 26.9505007,1.95084494 26.945,1.753 C26.947439,1.55732982 26.8655875,1.37006605 26.7203166,1.23895864 C26.5750458,1.10785123 26.3803958,1.0455715 26.186,1.068 L21.617,1.068 C21.3107446,1.03149457 21.0046673,1.1374907 20.786579,1.35557898 C20.5684907,1.57366726 20.4624946,1.87974464 20.499,2.186 L20.499,9.473 C20.4624946,9.77925536 20.5684907,10.0853327 20.786579,10.303421 C21.0046673,10.5215093 21.3107446,10.6275054 21.617,10.591 L21.61,10.597 Z M21.973,6.078 L24.323,6.078 C24.7555735,6.00967533 25.195197,6.14770564 25.5110833,6.45102717 C25.8269696,6.7543487 25.9827204,7.18801086 25.932,7.623 C25.9879117,8.06249487 25.8354916,8.5029015 25.519872,8.81381327 C25.2042524,9.12472505 24.761605,9.27050983 24.323,9.208 L21.975,9.208 L21.975,6.079 L21.973,6.078 Z M38.999,3.354 C38.0681116,3.35382354 37.1522088,3.58838821 36.336,4.036 C36.007,4.231 35.97,4.385 35.97,4.936 L35.97,12.26 C35.9473612,12.4596127 36.0137497,12.6590692 36.1515003,12.8052968 C36.289251,12.9515244 36.4843923,13.0296919 36.685,13.019 C36.8864938,13.0307752 37.0829484,12.9532182 37.2220601,12.8069774 C37.3611718,12.6607367 37.4288221,12.4606545 37.407,12.26 L37.407,10.35 C37.9468899,10.591684 38.5314853,10.7173924 39.123,10.719 C40.6805383,10.7812056 41.9969224,9.57597093 42.072,8.019 C42.1220955,7.36495785 42.1220955,6.70804215 42.072,6.054 C42.0279302,5.28642393 41.6779408,4.56856562 41.100367,4.06109765 C40.5227933,3.55362968 39.7658652,3.29892782 38.999,3.354 Z M40.641,7.804 C40.6333372,8.23540486 40.4474541,8.64439706 40.1274881,8.93386311 C39.807522,9.22332915 39.3820143,9.36744828 38.952,9.332 C38.4108239,9.33653828 37.8779821,9.19858571 37.407,8.932 L37.407,5.141 C37.8774244,4.87303733 38.4106434,4.73498708 38.952,4.741 C39.382596,4.70522069 39.8087454,4.84963386 40.1288786,5.13981973 C40.4490118,5.43000561 40.6344517,5.83996964 40.641,6.272 C40.6847134,6.78273302 40.6847134,7.29626698 40.641,7.807 L40.641,7.804 Z M31.41,3.35 C30.7272302,3.35492236 30.0514797,3.4882406 29.418,3.743 C29.028,3.902 28.861,4.129 28.864,4.431 C28.8610404,4.59396599 28.9238533,4.75125367 29.0382568,4.86735066 C29.1526603,4.98344764 29.3090081,5.0485648 29.472,5.048 C29.6553263,5.03372301 29.8347194,4.98735161 30.002,4.911 C30.4168172,4.75007482 30.8570984,4.66472799 31.302,4.659 C32.402,4.659 32.856,5.075 32.856,5.928 L32.856,6.502 C32.2871878,6.33959576 31.6985424,6.25713829 31.107,6.257 C29.297,6.257 28.414,7.288 28.414,8.42 C28.414,9.729 29.405,10.713 31.157,10.713 C32.1463377,10.7335729 33.1218315,10.4780122 33.974,9.975 C34.1613351,9.86435167 34.2665603,9.6542924 34.243,9.438 L34.243,5.959 C34.243,4.169 33.212,3.349 31.412,3.349 L31.41,3.35 Z M32.856,9.128 C32.3693895,9.37685277 31.8315278,9.5090072 31.285,9.514 C30.362,9.514 29.785,9.114 29.785,8.42 C29.785,7.792 30.279,7.305 31.279,7.305 C31.8148044,7.30765574 32.3470178,7.39264799 32.857,7.557 L32.856,9.128 Z M16.466,9.42 L13.988,6.94 L16.338,4.59 C16.5051976,4.44585309 16.6048359,4.23860535 16.613,4.018 C16.6170277,3.8557375 16.5535742,3.69907262 16.4377642,3.58534758 C16.3219542,3.47162254 16.1641626,3.41102543 16.002,3.418 C15.7819028,3.42288256 15.5751667,3.524604 15.437,3.696 L13.049,6.079 C12.9324499,6.20702354 12.7671285,6.27969229 12.594,6.279 L12.107,6.279 L12.107,4.173 C12.1301531,3.97257475 12.0633752,3.77218403 11.9246224,3.62571209 C11.7858697,3.47924015 11.5893842,3.40172128 11.388,3.414 C11.18753,3.40321147 10.9925141,3.48142843 10.8550586,3.627752 C10.7176031,3.77407557 10.6517154,3.97359483 10.675,4.173 L10.675,9.893 C10.6517649,10.0930199 10.7178461,10.2931158 10.8556319,10.4399589 C10.9934178,10.5868019 11.1889075,10.6654712 11.39,10.655 C11.5916695,10.6663422 11.7880643,10.5880997 11.9266862,10.4411875 C12.0653081,10.2942753 12.1320239,10.0936717 12.109,9.893 L12.109,7.611 L12.517,7.611 C12.6904241,7.61027586 12.8560663,7.68292597 12.973,7.811 L15.521,10.359 C15.6660567,10.5388662 15.8829912,10.6456872 16.114,10.651 C16.2850961,10.6583357 16.4515025,10.5939988 16.573165,10.4734752 C16.6948274,10.3529515 16.7607264,10.1871575 16.755,10.016 C16.7465249,9.7844564 16.6417665,9.56696489 16.466,9.416 L16.466,9.42 Z M9.575,9.958 C9.57131987,9.79807704 9.53738878,9.64029744 9.475,9.493 L6.822,2.257 C6.503,1.374 6.036,0.998 5.294,0.998 C4.552,0.998 4.085,1.374 3.766,2.257 L1.097,9.497 C1.03605146,9.64439978 1.00217634,9.80158035 0.997,9.961 C0.99769892,10.1479786 1.07414195,10.3266924 1.20887616,10.4563387 C1.34361037,10.5859851 1.52513296,10.6554955 1.712,10.649 C2.06628152,10.6545486 2.37464416,10.4078585 2.447,10.061 L3.31,7.601 L7.255,7.601 L8.125,10.068 C8.19768933,10.4111436 8.50328818,10.6547004 8.854,10.649 C9.04225002,10.6566127 9.22548552,10.5872511 9.36150697,10.4568893 C9.49752842,10.3265276 9.57461013,10.1464035 9.575,9.958 Z M3.775,6.287 L5.09,2.54 C5.14,2.409 5.184,2.362 5.281,2.362 C5.378,2.362 5.422,2.409 5.469,2.54 L6.791,6.287 L3.775,6.287 Z" id="path52" fill="#10002B" fill-rule="nonzero"></path>
                        <path d="M1.45103049,25.3888152 C1.65192238,25.3888152 1.81998313,25.3149813 1.86915753,24.9911534 L3.1565144,16.1848138 C3.1933952,15.9265759 3.25898518,15.852742 3.39428709,15.852742 C3.50500181,15.852742 3.57059178,15.9101603 3.62801012,16.143811 L5.64502832,24.3761842 C5.82545498,25.0977462 6.15752682,25.3888152 6.72332168,25.3888152 C7.27270098,25.3888152 7.60477281,25.0977462 7.78512715,24.3843558 L9.82680487,16.143811 C9.88422321,15.9101603 9.94981319,15.852742 10.0605279,15.852742 C10.1958298,15.852742 10.2695914,15.9265759 10.3064722,16.1848138 L11.6225383,24.9829095 C11.663541,25.2493913 11.7824274,25.3888152 12.0570809,25.3888152 C12.3030975,25.3888152 12.4957455,25.2576353 12.4957455,25.0116187 C12.4957455,24.9460287 12.4916958,24.8804387 12.4752802,24.7820176 L11.1428709,15.9757503 C11.0362782,15.2583102 10.6385441,15 10.0605279,15 C9.53161384,15 9.1749548,15.2583102 9.03148126,15.852742 L6.99797517,24.2367603 C6.94880077,24.4417741 6.8955044,24.5360733 6.74378691,24.5360733 C6.59214174,24.5360733 6.55518862,24.4417741 6.50601422,24.2449319 L4.46433651,15.852742 C4.32086296,15.2583102 3.96008196,15 3.43116789,15 C2.85315174,15 2.45541762,15.2583102 2.34477522,15.9675063 L1.01641557,24.8599012 C1.00824394,24.8968543 1,24.9460287 1,25.0116187 C1,25.2576353 1.20913583,25.3888152 1.45103049,25.3888152 Z M17.5464626,17.7263589 C15.7876823,17.7263589 14.5413282,18.9193443 14.3773894,20.6494878 C14.324093,21.1906231 14.324093,22.0147282 14.385561,22.5599855 C14.5659154,24.2900566 15.7876823,25.4544052 17.6161745,25.4544052 C18.4566229,25.4544052 19.1740629,25.2945161 19.825913,24.9706159 C20.055514,24.8517295 20.2441123,24.7000121 20.2359407,24.4827769 C20.2276968,24.2613475 20.0842232,24.113752 19.8833313,24.113752 C19.7357358,24.113752 19.6496806,24.1588767 19.4692539,24.2326383 C18.8911655,24.4786549 18.2967338,24.6139569 17.6161745,24.6139569 C16.2304688,24.6139569 15.3367241,23.7816801 15.2137158,22.5230324 C15.2014222,22.3549717 15.1850066,22.182789 15.1808847,21.9941907 L19.9038689,21.9941907 C20.481885,21.9941907 20.5680125,21.8917199 20.5680125,21.2849223 L20.5680125,20.7519585 C20.5680125,19.0013499 19.4282512,17.7263589 17.5464626,17.7263589 Z M19.7234422,21.2152103 L15.1808847,21.2152103 C15.1850066,21.0266843 15.2014222,20.8503797 15.2137158,20.6863686 C15.3326021,19.4277209 16.2304688,18.5668073 17.5464626,18.5668073 C18.9362902,18.5668073 19.8587441,19.4933108 19.7234422,21.2152103 Z M29.3405086,24.4991202 L28.6762926,24.4991202 L28.6762926,18.6446909 C28.6762926,18.0092564 28.4959383,17.8288297 27.8563818,17.8288297 L24.5273472,17.8288297 C23.8919127,17.8288297 23.7114861,18.0092564 23.7114861,18.6446909 L23.7114861,20.3870556 C23.7114861,22.7854646 23.4285886,24.4991202 22.4979631,24.4991202 L22.4242015,24.4991202 C22.1577197,24.4991202 22.0060022,24.6590093 22.0060022,24.9460287 L22.0060022,26.5531638 C22.0060022,26.8442329 22.1577197,27 22.4242015,27 C22.6906834,27 22.8423286,26.8442329 22.8423286,26.5531638 L22.8423286,25.3232253 L28.2499217,25.3232253 C28.2540436,25.3232253 28.2540436,25.3232253 28.2540436,25.3232253 L28.2622153,25.3232253 L28.9223093,25.3232253 L28.9223093,26.5531638 C28.9223093,26.8442329 29.0739544,27 29.3405086,27 C29.6069905,27 29.7586357,26.8442329 29.7586357,26.5531638 L29.7586357,24.9460287 C29.7586357,24.6590093 29.6069905,24.4991202 29.3405086,24.4991202 Z M24.5519344,20.374762 L24.5519344,18.6528625 L27.8358443,18.6528625 L27.8358443,24.4991202 L23.7566108,24.4991202 C24.4125829,23.7242618 24.5519344,22.1992045 24.5519344,20.374762 Z M37.2076895,17.7632397 C36.8510305,17.7632397 36.641967,17.9805472 36.3221887,18.4642642 L32.411016,24.4171869 L32.3823069,24.4171869 C32.411016,23.5726166 32.4233096,21.5965289 32.4233096,20.1411112 L32.4233096,18.2101482 C32.4233096,17.9231288 32.2715921,17.7632397 32.0051103,17.7632397 C31.7345064,17.7632397 31.5828613,17.9231288 31.5828613,18.2101482 L31.5828613,24.6713752 C31.5828613,25.134627 31.8657587,25.3888152 32.242883,25.3888152 C32.6119079,25.3888152 32.7799687,25.1633361 33.1202844,24.6508377 L37.0396288,18.6815717 L37.0847535,18.6815717 C37.0560444,19.7680366 37.0560444,20.8585513 37.0560444,22.0228998 L37.0560444,24.9378571 C37.0560444,25.2289261 37.2076895,25.3888152 37.4741714,25.3888152 C37.7406532,25.3888152 37.8923707,25.2289261 37.8923707,24.9378571 L37.8923707,18.4848017 C37.8923707,18.02155 37.5971797,17.7632397 37.2076895,17.7632397 Z M47.1699168,24.4991202 L47.1617452,24.4991202 L46.5057732,24.4991202 L46.5057732,18.2101482 C46.5057732,17.9231288 46.3540557,17.7632397 46.0835242,17.7632397 C45.8170423,17.7632397 45.6653248,17.9231288 45.6653248,18.2101482 L45.6653248,24.4991202 L41.3236592,24.4991202 L41.3236592,18.2101482 C41.3236592,17.9231288 41.172014,17.7632397 40.9055321,17.7632397 C40.6349283,17.7632397 40.4832108,17.9231288 40.4832108,18.2101482 L40.4832108,24.5073641 C40.4832108,25.1427986 40.6676871,25.3232253 41.3031939,25.3232253 L45.694034,25.3232253 L45.7022056,25.3232253 L46.7517898,25.3232253 L46.7517898,26.5531638 C46.7517898,26.8442329 46.903435,27 47.1699168,27 C47.4363987,27 47.5881162,26.8442329 47.5881162,26.5531638 L47.5881162,24.9460287 C47.5881162,24.6590093 47.4363987,24.4991202 47.1699168,24.4991202 Z M55.1105701,17.7632397 C54.7539111,17.7632397 54.5447752,17.9805472 54.224997,18.4642642 L50.3138243,24.4171869 L50.2851151,24.4171869 C50.3138243,23.5726166 50.3261179,21.5965289 50.3261179,20.1411112 L50.3261179,18.2101482 C50.3261179,17.9231288 50.1744727,17.7632397 49.9079908,17.7632397 C49.637387,17.7632397 49.4856695,17.9231288 49.4856695,18.2101482 L49.4856695,24.6713752 C49.4856695,25.134627 49.768567,25.3888152 50.1457635,25.3888152 C50.5147162,25.3888152 50.6828492,25.1633361 51.0230927,24.6508377 L54.9425093,18.6815717 L54.9875618,18.6815717 C54.9588526,19.7680366 54.9588526,20.8585513 54.9588526,22.0228998 L54.9588526,24.9378571 C54.9588526,25.2289261 55.1105701,25.3888152 55.3770519,25.3888152 C55.6435338,25.3888152 55.7952513,25.2289261 55.7952513,24.9378571 L55.7952513,18.4848017 C55.7952513,18.02155 55.5000603,17.7632397 55.1105701,17.7632397 Z M64.2118115,17.7632397 C63.9453296,17.7632397 63.7936845,17.9231288 63.7936845,18.2101482 L63.7936845,21.0922743 L59.2347113,21.0922743 L59.2347113,18.2101482 C59.2347113,17.9231288 59.0830662,17.7632397 58.8165843,17.7632397 C58.5459805,17.7632397 58.394263,17.9231288 58.394263,18.2101482 L58.394263,24.9378571 C58.394263,25.2289261 58.5459805,25.3888152 58.8165843,25.3888152 C59.0830662,25.3888152 59.2347113,25.2289261 59.2347113,24.9378571 L59.2347113,21.8998915 L63.7936845,21.8998915 L63.7936845,24.9378571 C63.7936845,25.2289261 63.9453296,25.3888152 64.2118115,25.3888152 C64.4782934,25.3888152 64.6300108,25.2289261 64.6300108,24.9378571 L64.6300108,18.2101482 C64.6300108,17.9231288 64.4782934,17.7632397 64.2118115,17.7632397 Z M69.3937086,25.4544052 C70.8122454,25.4544052 71.8987104,24.9460287 72.2882006,24.6590093 C72.4316741,24.5483669 72.4767988,24.4704833 72.4767988,24.2654694 L72.4767988,20.3010004 C72.4767988,18.5299265 71.4436302,17.6976498 69.7627335,17.6976498 C68.889454,17.6976498 68.0121249,17.9435941 67.5570447,18.1527299 C67.2823912,18.2757382 67.151139,18.3905026 67.1593829,18.6159817 C67.1675545,18.8332891 67.3397373,19.0136435 67.5488731,19.0136435 C67.6513439,19.0136435 67.7825238,18.9726407 67.9055321,18.9111727 C68.2663131,18.7554056 68.9755815,18.5380981 69.6684344,18.5380981 C71.0008437,18.5380981 71.6362782,19.0874774 71.6362782,20.3461251 L71.6362782,21.0676148 C70.7835362,20.8216705 70.1891045,20.735543 69.4675425,20.735543 C67.5857539,20.735543 66.6141256,21.822008 66.6141256,23.0642401 C66.6141256,24.5278293 67.7169338,25.4544052 69.3937086,25.4544052 Z M69.5249608,24.6139569 C68.1924792,24.6139569 67.4545739,24.048162 67.4545739,23.0806557 C67.4545739,22.2114981 68.106424,21.5596481 69.5249608,21.5596481 C70.2178137,21.5596481 70.7958298,21.6621188 71.6362782,21.9081355 L71.6362782,24.0645776 C71.0500181,24.3843558 70.2546945,24.6139569 69.5249608,24.6139569 Z" id="path6" fill="#10002B"></path>
                    </g>
                </g>
            </g>
        </g>
    </g>
</svg>