<svg width="153" height="27" viewBox="0 0 153 27" fill="none" xmlns="http://www.w3.org/2000/svg">
<path d="M124.691 8.96479L119.325 9.92978C118.435 10.0895 117.843 10.9401 118.003 11.8298C118.163 12.7194 119.013 13.3112 119.903 13.1518L125.269 12.1868C126.283 11.9653 127.303 12.5339 127.648 13.5128C128.064 14.4625 127.708 15.5735 126.818 16.1048L118.942 21.2048C118.226 21.6769 117.306 21.7123 116.556 21.2968C115.798 20.8939 115.328 20.1028 115.336 19.2448V6.68578C115.353 4.62523 114.223 2.72596 112.405 1.75678C110.603 0.757457 108.395 0.842232 106.675 1.97678L86.8659 14.8098C84.6595 16.1839 83.7727 18.9537 84.7709 21.3538C85.6832 23.7864 88.2221 25.2014 90.7709 24.6978L108.071 21.5878C108.961 21.428 109.552 20.5775 109.393 19.6878C109.233 18.7981 108.383 18.2063 107.493 18.3658L90.1929 21.4758C89.1795 21.6973 88.1598 21.1291 87.8149 20.1508C87.399 19.2003 87.7556 18.0888 88.6469 17.5578L108.455 4.72378C109.171 4.25146 110.09 4.21601 110.841 4.63178C111.598 5.03585 112.068 5.82677 112.061 6.68478V19.2478C112.044 21.3083 113.174 23.2074 114.992 24.1768C115.815 24.6287 116.739 24.867 117.678 24.8698C118.76 24.8663 119.817 24.5488 120.722 23.9558L128.598 18.8558C130.81 17.4852 131.7 14.7114 130.698 12.3098C129.785 9.87744 127.247 8.46261 124.698 8.96578L124.691 8.96479ZM152.398 12.3098C151.486 9.87658 148.947 8.4613 146.398 8.96578L141.032 9.93078C140.142 10.0905 139.55 10.9411 139.71 11.8308C139.87 12.7204 140.72 13.3122 141.61 13.1528L146.976 12.1878C147.989 11.9663 149.009 12.5345 149.354 13.5128C149.77 14.4622 149.415 15.5731 148.525 16.1048L140.648 21.2048C139.932 21.6769 139.012 21.7123 138.262 21.2968C137.504 20.8955 137.032 20.1056 137.038 19.2478V2.70878C137.038 2.27419 136.865 1.85751 136.557 1.55048C136.249 1.24346 135.832 1.07125 135.398 1.07178C134.494 1.07178 133.761 1.80469 133.761 2.70878V19.2478C133.746 21.3095 134.877 23.2089 136.698 24.1768C137.522 24.6288 138.445 24.8671 139.385 24.8698C140.467 24.8663 141.524 24.5488 142.429 23.9558L150.306 18.8558C152.513 17.4807 153.399 14.7089 152.398 12.3088" fill="#009B3A"/>
<path d="M48.7151 7.99205C48.4431 8.00053 48.199 8.16142 48.0841 8.40805C47.8147 8.98823 47.2232 9.34983 46.5841 9.32505C46.1548 9.35772 45.7308 9.21391 45.4099 8.92685C45.0891 8.63979 44.8992 8.2343 44.8841 7.80405C44.8401 7.29333 44.8401 6.77977 44.8841 6.26905C44.8995 5.83866 45.0894 5.43308 45.41 5.14561C45.7307 4.85813 46.1546 4.71352 46.5841 4.74505C47.2253 4.71884 47.8185 5.08383 48.0841 5.66805C48.2015 5.91172 48.4447 6.06978 48.7151 6.07805C48.8995 6.09592 49.0825 6.0329 49.2168 5.9053C49.3511 5.77771 49.4235 5.59811 49.4151 5.41305C49.4023 5.18064 49.3307 4.95527 49.2071 4.75805C48.6578 3.83478 47.6395 3.29481 46.5671 3.35805C44.9643 3.25512 43.5793 4.4659 43.4671 6.06805C43.4161 6.71404 43.4161 7.36305 43.4671 8.00905C43.5809 9.61082 44.9643 10.8216 46.5671 10.722C47.6418 10.785 48.6617 10.2424 49.2101 9.31605C49.331 9.11811 49.3998 8.89277 49.4101 8.66105C49.4185 8.47606 49.3462 8.29653 49.2118 8.16908C49.0775 8.04164 48.8944 7.97886 48.7101 7.99705L48.7151 7.99205ZM21.6101 10.597H24.4751C25.289 10.6756 26.0951 10.3834 26.6696 9.80155C27.2441 9.21965 27.526 8.40993 27.4371 7.59705C27.4988 6.80622 27.2012 6.02963 26.6267 5.48267C26.0522 4.93571 25.2619 4.67654 24.4751 4.77705H21.9751V2.45305H26.1861C26.3828 2.4745 26.5792 2.40981 26.7247 2.27563C26.8702 2.14145 26.9506 1.95089 26.9451 1.75305C26.9475 1.55738 26.8657 1.37011 26.7204 1.23901C26.5751 1.1079 26.3805 1.04562 26.1861 1.06805H21.6171C21.3108 1.03154 21.0047 1.13754 20.7866 1.35563C20.5686 1.57371 20.4626 1.87979 20.4991 2.18605V9.47305C20.4626 9.7793 20.5686 10.0854 20.7866 10.3035C21.0047 10.5216 21.3108 10.6276 21.6171 10.591L21.6101 10.597ZM21.9731 6.07805H24.3231C24.7556 6.00972 25.1953 6.14775 25.5112 6.45107C25.827 6.7544 25.9828 7.18806 25.9321 7.62305C25.988 8.06254 25.8356 8.50295 25.5199 8.81386C25.2043 9.12477 24.7617 9.27056 24.3231 9.20805H21.9751V6.07905L21.9731 6.07805ZM38.9991 3.35405C38.0682 3.35387 37.1523 3.58843 36.3361 4.03605C36.0071 4.23105 35.9701 4.38505 35.9701 4.93605V12.26C35.9474 12.4597 36.0138 12.6591 36.1516 12.8053C36.2893 12.9516 36.4845 13.0297 36.6851 13.019C36.8866 13.0308 37.083 12.9533 37.2221 12.807C37.3612 12.6608 37.4289 12.4607 37.4071 12.26V10.35C37.947 10.5917 38.5316 10.7174 39.1231 10.719C40.6806 10.7813 41.997 9.57602 42.0721 8.01905C42.1222 7.365 42.1222 6.70809 42.0721 6.05405C42.028 5.28647 41.678 4.56861 41.1004 4.06114C40.5229 3.55368 39.7659 3.29897 38.9991 3.35405ZM40.6411 7.80405C40.6334 8.23545 40.4475 8.64444 40.1276 8.93391C39.8076 9.22338 39.3821 9.36749 38.9521 9.33205C38.4109 9.33658 37.8781 9.19863 37.4071 8.93205V5.14105C37.8775 4.87308 38.4107 4.73503 38.9521 4.74105C39.3827 4.70527 39.8088 4.84968 40.1289 5.13987C40.4491 5.43005 40.6345 5.84002 40.6411 6.27205C40.6848 6.78278 40.6848 7.29631 40.6411 7.80705V7.80405ZM31.4101 3.35005C30.7273 3.35497 30.0515 3.48829 29.4181 3.74305C29.0281 3.90205 28.8611 4.12905 28.8641 4.43105C28.8611 4.59401 28.9239 4.7513 29.0383 4.8674C29.1527 4.98349 29.3091 5.04861 29.4721 5.04805C29.6554 5.03377 29.8348 4.9874 30.0021 4.91105C30.4169 4.75012 30.8572 4.66477 31.3021 4.65905C32.4021 4.65905 32.8561 5.07505 32.8561 5.92805V6.50205C32.2873 6.33964 31.6986 6.25718 31.1071 6.25705C29.2971 6.25705 28.4141 7.28805 28.4141 8.42005C28.4141 9.72905 29.4051 10.713 31.1571 10.713C32.1464 10.7336 33.1219 10.4781 33.9741 9.97505C34.1614 9.8644 34.2666 9.65434 34.2431 9.43805V5.95905C34.2431 4.16905 33.2121 3.34905 31.4121 3.34905L31.4101 3.35005ZM32.8561 9.12805C32.3695 9.3769 31.8316 9.50905 31.2851 9.51405C30.3621 9.51405 29.7851 9.11405 29.7851 8.42005C29.7851 7.79205 30.2791 7.30505 31.2791 7.30505C31.8149 7.3077 32.3471 7.39269 32.8571 7.55705L32.8561 9.12805ZM16.4661 9.42005L13.9881 6.94005L16.3381 4.59005C16.5053 4.4459 16.6049 4.23865 16.6131 4.01805C16.6171 3.85578 16.5536 3.69912 16.4378 3.58539C16.322 3.47167 16.1642 3.41107 16.0021 3.41805C15.782 3.42293 15.5752 3.52465 15.4371 3.69605L13.0491 6.07905C12.9325 6.20707 12.7672 6.27974 12.5941 6.27905H12.1071V4.17305C12.1302 3.97262 12.0634 3.77223 11.9247 3.62576C11.7859 3.47929 11.5895 3.40177 11.3881 3.41405C11.1876 3.40326 10.9926 3.48148 10.8551 3.6278C10.7177 3.77412 10.6518 3.97364 10.6751 4.17305V9.89305C10.6518 10.0931 10.7179 10.2932 10.8557 10.44C10.9935 10.5868 11.189 10.6655 11.3901 10.655C11.5917 10.6664 11.7881 10.5881 11.9268 10.4412C12.0654 10.2943 12.1321 10.0937 12.1091 9.89305V7.61105H12.5171C12.6905 7.61032 12.8561 7.68297 12.9731 7.81105L15.5211 10.359C15.6661 10.5389 15.8831 10.6457 16.1141 10.651C16.2852 10.6584 16.4516 10.594 16.5732 10.4735C16.6949 10.353 16.7608 10.1872 16.7551 10.016C16.7466 9.7845 16.6418 9.56701 16.4661 9.41605V9.42005ZM9.57507 9.95805C9.57139 9.79812 9.53746 9.64034 9.47507 9.49305L6.82207 2.25705C6.50307 1.37405 6.03607 0.998047 5.29407 0.998047C4.55207 0.998047 4.08507 1.37405 3.76607 2.25705L1.09707 9.49705C1.03612 9.64445 1.00225 9.80163 0.99707 9.96105C0.997769 10.148 1.07421 10.3267 1.20895 10.4564C1.34368 10.586 1.5252 10.6555 1.71207 10.649C2.06635 10.6546 2.37471 10.4079 2.44707 10.061L3.31007 7.60105H7.25507L8.12507 10.068C8.19776 10.4112 8.50336 10.6547 8.85407 10.649C9.04232 10.6567 9.22556 10.5873 9.36158 10.4569C9.4976 10.3266 9.57468 10.1465 9.57507 9.95805ZM3.77507 6.28705L5.09007 2.54005C5.14007 2.40905 5.18407 2.36205 5.28107 2.36205C5.37807 2.36205 5.42207 2.40905 5.46907 2.54005L6.79107 6.28705H3.77507Z" fill="#10002B"/>
<path d="M1.45103 25.3888C1.65192 25.3888 1.81998 25.315 1.86916 24.9912L3.15651 16.1848C3.1934 15.9266 3.25899 15.8527 3.39429 15.8527C3.505 15.8527 3.57059 15.9102 3.62801 16.1438L5.64503 24.3762C5.82545 25.0977 6.15753 25.3888 6.72332 25.3888C7.2727 25.3888 7.60477 25.0977 7.78513 24.3844L9.82681 16.1438C9.88422 15.9102 9.94981 15.8527 10.0605 15.8527C10.1958 15.8527 10.2696 15.9266 10.3065 16.1848L11.6225 24.9829C11.6635 25.2494 11.7824 25.3888 12.0571 25.3888C12.3031 25.3888 12.4957 25.2576 12.4957 25.0116C12.4957 24.946 12.4917 24.8804 12.4753 24.782L11.1429 15.9757C11.0363 15.2583 10.6385 15 10.0605 15C9.53161 15 9.17495 15.2583 9.03148 15.8527L6.99798 24.2368C6.9488 24.4418 6.8955 24.5361 6.74379 24.5361C6.59214 24.5361 6.55519 24.4418 6.50601 24.2449L4.46434 15.8527C4.32086 15.2583 3.96008 15 3.43117 15C2.85315 15 2.45542 15.2583 2.34478 15.9675L1.01642 24.8599C1.00824 24.8969 1 24.946 1 25.0116C1 25.2576 1.20914 25.3888 1.45103 25.3888ZM17.5465 17.7264C15.7877 17.7264 14.5413 18.9193 14.3774 20.6495C14.3241 21.1906 14.3241 22.0147 14.3856 22.56C14.5659 24.2901 15.7877 25.4544 17.6162 25.4544C18.4566 25.4544 19.1741 25.2945 19.8259 24.9706C20.0555 24.8517 20.2441 24.7 20.2359 24.4828C20.2277 24.2613 20.0842 24.1138 19.8833 24.1138C19.7357 24.1138 19.6497 24.1589 19.4693 24.2326C18.8912 24.4787 18.2967 24.614 17.6162 24.614C16.2305 24.614 15.3367 23.7817 15.2137 22.523C15.2014 22.355 15.185 22.1828 15.1809 21.9942H19.9039C20.4819 21.9942 20.568 21.8917 20.568 21.2849V20.752C20.568 19.0014 19.4283 17.7264 17.5465 17.7264ZM19.7234 21.2152H15.1809C15.185 21.0267 15.2014 20.8504 15.2137 20.6864C15.3326 19.4277 16.2305 18.5668 17.5465 18.5668C18.9363 18.5668 19.8587 19.4933 19.7234 21.2152ZM29.3405 24.4991H28.6763V18.6447C28.6763 18.0093 28.4959 17.8288 27.8564 17.8288H24.5273C23.8919 17.8288 23.7115 18.0093 23.7115 18.6447V20.3871C23.7115 22.7855 23.4286 24.4991 22.498 24.4991H22.4242C22.1577 24.4991 22.006 24.659 22.006 24.946V26.5532C22.006 26.8442 22.1577 27 22.4242 27C22.6907 27 22.8423 26.8442 22.8423 26.5532V25.3232H28.2499C28.254 25.3232 28.254 25.3232 28.254 25.3232H28.2622H28.9223V26.5532C28.9223 26.8442 29.074 27 29.3405 27C29.607 27 29.7586 26.8442 29.7586 26.5532V24.946C29.7586 24.659 29.607 24.4991 29.3405 24.4991ZM24.5519 20.3748V18.6529H27.8358V24.4991H23.7566C24.4126 23.7243 24.5519 22.1992 24.5519 20.3748ZM37.2077 17.7632C36.851 17.7632 36.642 17.9805 36.3222 18.4643L32.411 24.4172H32.3823C32.411 23.5726 32.4233 21.5965 32.4233 20.1411V18.2101C32.4233 17.9231 32.2716 17.7632 32.0051 17.7632C31.7345 17.7632 31.5829 17.9231 31.5829 18.2101V24.6714C31.5829 25.1346 31.8658 25.3888 32.2429 25.3888C32.6119 25.3888 32.78 25.1633 33.1203 24.6508L37.0396 18.6816H37.0848C37.056 19.768 37.056 20.8586 37.056 22.0229V24.9379C37.056 25.2289 37.2077 25.3888 37.4742 25.3888C37.7407 25.3888 37.8924 25.2289 37.8924 24.9379V18.4848C37.8924 18.0216 37.5972 17.7632 37.2077 17.7632ZM47.1699 24.4991H47.1617H46.5058V18.2101C46.5058 17.9231 46.3541 17.7632 46.0835 17.7632C45.817 17.7632 45.6653 17.9231 45.6653 18.2101V24.4991H41.3237V18.2101C41.3237 17.9231 41.172 17.7632 40.9055 17.7632C40.6349 17.7632 40.4832 17.9231 40.4832 18.2101V24.5074C40.4832 25.1428 40.6677 25.3232 41.3032 25.3232H45.694H45.7022H46.7518V26.5532C46.7518 26.8442 46.9034 27 47.1699 27C47.4364 27 47.5881 26.8442 47.5881 26.5532V24.946C47.5881 24.659 47.4364 24.4991 47.1699 24.4991ZM55.1106 17.7632C54.7539 17.7632 54.5448 17.9805 54.225 18.4643L50.3138 24.4172H50.2851C50.3138 23.5726 50.3261 21.5965 50.3261 20.1411V18.2101C50.3261 17.9231 50.1745 17.7632 49.908 17.7632C49.6374 17.7632 49.4857 17.9231 49.4857 18.2101V24.6714C49.4857 25.1346 49.7686 25.3888 50.1458 25.3888C50.5147 25.3888 50.6829 25.1633 51.0231 24.6508L54.9425 18.6816H54.9876C54.9589 19.768 54.9589 20.8586 54.9589 22.0229V24.9379C54.9589 25.2289 55.1106 25.3888 55.3771 25.3888C55.6435 25.3888 55.7952 25.2289 55.7952 24.9379V18.4848C55.7952 18.0216 55.5001 17.7632 55.1106 17.7632ZM64.2118 17.7632C63.9453 17.7632 63.7937 17.9231 63.7937 18.2101V21.0923H59.2347V18.2101C59.2347 17.9231 59.0831 17.7632 58.8166 17.7632C58.546 17.7632 58.3943 17.9231 58.3943 18.2101V24.9379C58.3943 25.2289 58.546 25.3888 58.8166 25.3888C59.0831 25.3888 59.2347 25.2289 59.2347 24.9379V21.8999H63.7937V24.9379C63.7937 25.2289 63.9453 25.3888 64.2118 25.3888C64.4783 25.3888 64.63 25.2289 64.63 24.9379V18.2101C64.63 17.9231 64.4783 17.7632 64.2118 17.7632ZM69.3937 25.4544C70.8122 25.4544 71.8987 24.946 72.2882 24.659C72.4317 24.5484 72.4768 24.4705 72.4768 24.2655V20.301C72.4768 18.5299 71.4436 17.6976 69.7627 17.6976C68.8895 17.6976 68.0121 17.9436 67.557 18.1527C67.2824 18.2757 67.1511 18.3905 67.1594 18.616C67.1676 18.8333 67.3397 19.0136 67.5489 19.0136C67.6513 19.0136 67.7825 18.9726 67.9055 18.9112C68.2663 18.7554 68.9756 18.5381 69.6684 18.5381C71.0008 18.5381 71.6363 19.0875 71.6363 20.3461V21.0676C70.7835 20.8217 70.1891 20.7355 69.4675 20.7355C67.5858 20.7355 66.6141 21.822 66.6141 23.0642C66.6141 24.5278 67.7169 25.4544 69.3937 25.4544ZM69.525 24.614C68.1925 24.614 67.4546 24.0482 67.4546 23.0807C67.4546 22.2115 68.1064 21.5596 69.525 21.5596C70.2178 21.5596 70.7958 21.6621 71.6363 21.9081V24.0646C71.05 24.3844 70.2547 24.614 69.525 24.614Z" fill="#10002B"/>
</svg>
